<svg xmlns="http://www.w3.org/2000/svg" width="1006" height="221" viewBox="0 0 1006 221" fill="none">
  <path d="M0 32.4C0 20.8213 0 15.032 2.32469 10.6414C4.20069 7.09825 7.09825 4.20069 10.6414 2.32469C15.032 0 20.8213 0 32.4 0H973.6C985.179 0 990.968 0 995.359 2.32469C998.902 4.20069 1001.8 7.09825 1003.68 10.6414C1006 15.032 1006 20.8213 1006 32.4V188.6C1006 200.179 1006 205.968 1003.68 210.359C1001.8 213.902 998.902 216.799 995.359 218.675C990.968 221 985.179 221 973.6 221H32.4C20.8213 221 15.032 221 10.6414 218.675C7.09825 216.799 4.20069 213.902 2.32469 210.359C0 205.968 0 200.179 0 188.6V32.4Z" fill="#101010"/>
</svg>